inDegrees=yes
name=ik_S49_A07_T02
DataType=double
version=3
OpenSimVersion=4.3-2021-08-27-4bc7ad9
endheader
time	pelvis_tilt	pelvis_list	pelvis_rotation	pelvis_tx	pelvis_ty	pelvis_tz	hip_flexion_r	hip_adduction_r	hip_rotation_r	knee_angle_r	knee_angle_r_beta	ankle_angle_r	subtalar_angle_r	mtp_angle_r	hip_flexion_l	hip_adduction_l	hip_rotation_l	knee_angle_l	knee_angle_l_beta	ankle_angle_l	subtalar_angle_l	mtp_angle_l	lumbar_extension	lumbar_bending	lumbar_rotation	arm_flex_r	arm_add_r	arm_rot_r	elbow_flex_r	pro_sup_r	wrist_flex_r	wrist_dev_r	arm_flex_l	arm_add_l	arm_rot_l	elbow_flex_l	pro_sup_l	wrist_flex_l	wrist_dev_l
0	0	0	0	0	0.9399999999999999	0	0	0	0	0	0	0	0	0	0	0	0	0	0	0	0	0	0	0	0	0	0	0	0	89.99999999963507	0	0	0	0	0	0	89.99999999869995	0	0
0.02	-7.215449750749038	-2.117560493190505	25.04140373529486	0	0.9399999999999999	0	3.996935569330138	-1.848192249101363	-1.342674806753304	6.121557104766487	0.1068413268270267	0	0	0	3.996935569330138	-1.848192249101363	-1.342674806753304	6.121557104766487	0.1068413268270267	0	0	0	-5.91543469747559	-1.891274404294921	5.359693510840243	28.01405574177446	-8.081895280720749	-5.931292249794259	50.74267987719022	120.9429721486723	0	0	43.27384612584283	-12.15253791436944	18.36503498793862	27.74986831230892	114.6459176002663	0	0
0.04	-7.058101103241595	-2.37465662699536	25.10422450136697	0	0.9399999999999999	0	33.6857113539875	-13.70902704371635	-10.56055492367095	43.93360348940139	0.7667860331557239	0	0	0	33.6857113539875	-13.70902704371635	-10.56055492367095	43.93360348940139	0.7667860331557239	0	0	0	-5.935446592631107	-1.578653501910883	5.281927917502039	27.99504080991551	-8.056704610571716	-5.874119199922852	50.79104477303839	120.9304985835112	0	0	43.23897968810509	-12.18111262555579	18.29272020881979	27.77888739615221	114.7531571565642	0	0
0.06	-7.052146588237835	-2.3690881582031	25.10317197892146	0	0.9399999999999999	0	33.71579091120361	-13.68738591737453	-10.55790924634429	43.95481501798609	0.7671562441689079	0	0	0	33.71579091120361	-13.68738591737453	-10.55790924634429	43.95481501798609	0.7671562441689079	0	0	0	-5.930005556510506	-1.573248011400802	5.288319148304957	27.96811773182069	-8.089096080237647	-5.881965923628857	50.75939106413188	120.844236713764	0	0	43.2263159180695	-12.18972168539793	18.29820658776667	27.78309604825117	114.7191609132688	0	0
0.08	-7.04422087225853	-2.36984902289446	25.09869509436368	0	0.9399999999999999	0	33.72587297852582	-13.67979641295104	-10.55700917789284	43.96192300262489	0.7672803019040361	0	0	0	33.72587297852582	-13.67979641295104	-10.55700917789284	43.96192300262489	0.7672803019040361	0	0	0	-5.923869338368071	-1.576488818055539	5.2911329337818	27.9866699501648	-8.073838055517582	-5.867133231745731	50.744038905826	120.8273926656911	0	0	43.21228087731096	-12.1700876036902	18.33192073257807	27.75903470936608	114.7275060262098	0	0
0.1	-7.03555401499624	-2.365089402200496	25.0995865618138	0	0.9399999999999999	0	33.73465746112425	-13.67623396983851	-10.55638655108665	43.96850155251533	0.7673951192596309	0	0	0	33.73465746112425	-13.67623396983851	-10.55638655108665	43.96850155251533	0.7673951192596309	0	0	0	-5.9146357605219	-1.575262757644527	5.295369283027163	27.97885390959093	-8.069541061568168	-5.894824981033416	50.69026402943755	120.809492134391	0	0	43.21378133762759	-12.18141319344558	18.32903322436676	27.71805523479705	114.7447782062291	0	0
0.12	-7.029086083841242	-2.362511451692404	25.09798083955467	0	0.9399999999999999	0	33.75039743656915	-13.66239359965011	-10.55486598810313	43.97935430372389	0.76758453550112	0	0	0	33.75039743656915	-13.66239359965011	-10.55486598810313	43.97935430372389	0.76758453550112	0	0	0	-5.908725879864743	-1.57449222631099	5.300399540826376	27.96549940504063	-8.073020139416325	-5.944718718833881	50.6653089953363	120.8136101130449	0	0	43.19953947350494	-12.18198576244739	18.31079879179817	27.70902491818583	114.7434199832716	0	0
0.14	-7.026392577313315	-2.360493350728611	25.10757082416169	0	0.9399999999999999	0	33.76933189273662	-13.64809131844413	-10.5531609918681	43.99264975954254	0.7678165849807089	0	0	0	33.76933189273662	-13.64809131844413	-10.5531609918681	43.99264975954254	0.7678165849807089	0	0	0	-5.907229702640532	-1.570885145493965	5.295666748133216	27.96214826445533	-8.072140973365249	-5.938177175122884	50.633966583343	120.8111189376709	0	0	43.20669964443861	-12.1805349344087	18.30574969785924	27.7037982374353	114.7579234376254	0	0
0.16	-7.020061763720184	-2.360797256935183	25.10548306574363	0	0.9399999999999999	0	33.7832675594382	-13.63162638785019	-10.55159230811534	44.00178683630386	0.7679760570542016	0	0	0	33.7832675594382	-13.63162638785019	-10.55159230811534	44.00178683630386	0.7679760570542016	0	0	0	-5.90262748960047	-1.572418921476229	5.295792137651124	27.95842016154759	-8.061814529947416	-5.969370053220226	50.61861808117078	120.8194297696588	0	-4.1918891416052e-52	43.1928077437224	-12.17980613980024	18.2937572662849	27.70672365268441	114.7614500105435	0	-4.1918891416052e-52
0.18	-7.019033956149741	-2.355882466490818	25.11145800442997	0	0.9399999999999999	0	33.80085401327037	-13.61191314352437	-10.54967164940197	44.01341637254445	0.7681790307520797	0	0	0	33.80085401327037	-13.61191314352437	-10.54967164940197	44.01341637254445	0.7681790307520797	0	0	0	-5.900922222022896	-1.566764022307169	5.299069727924637	27.94671994789169	-8.060852026749195	-5.968466297268745	50.61039640263773	120.7933254897734	0	0	43.19669895226146	-12.16355954499476	18.30923431798991	27.71656798702574	114.7637900660269	0	0
0.2	-7.017008441123112	-2.356565488370259	25.11190102277585	0	0.9399999999999999	0	33.81251260858127	-13.59712141340575	-10.54832142023313	44.02093598679538	0.7683102727792384	0	0	0	33.81251260858127	-13.59712141340575	-10.54832142023313	44.02093598679538	0.7683102727792384	0	0	0	-5.900384485084148	-1.566583288328168	5.295522014309094	27.93893381356511	-8.071035439722442	-5.97595270444449	50.62035034509466	120.7690729145485	0	0	43.20067906936853	-12.17284818357387	18.28522209904927	27.75858769430159	114.7514293497487	0	0
0.22	-7.00848712792693	-2.355237307934575	25.12911928844403	0	0.9399999999999999	0	33.82884894279546	-13.59206913613695	-10.54724013830905	44.03315586368721	0.7685235498651892	0	0	0	33.82884894279546	-13.59206913613695	-10.54724013830905	44.03315586368721	0.7685235498651892	0	0	0	-5.893877848304443	-1.565712817892543	5.285022818820434	27.94117471957234	-8.055185796688074	-5.993303680846139	50.57867706795813	120.7742330019797	0	0	43.18027748132094	-12.16073654898607	18.26042777867405	27.70013967410149	114.7960106407102	0	0
